<?xml version="1.0" standalone="no"?>
<!DOCTYPE svg PUBLIC "-//W3C//DTD SVG 20010904//EN"
 "http://www.w3.org/TR/2001/REC-SVG-20010904/DTD/svg10.dtd">
<svg version="1.0" xmlns="http://www.w3.org/2000/svg"
  viewBox="0 0 282.89 86.04"
 preserveAspectRatio="xMidYMid meet">	
	
	<defs><style>#logo-fi .cls-1{fill:#231f20}</style></defs><g id="logo-fi_Layer_2" data-name="Layer 2"><g id="logo-fi_Layer_1-2" data-name="Layer 1"><path class="cls-1" d="M36.61 86l-.07-3.56a.75.75 0 00-.38-.64 2.61 2.61 0 01-.09-4.59.74.74 0 00.38-.66c-.11-6-.23-10.78-.46-14.52-.13-2.11-.29-3.73-.48-5a6 6 0 00-.92-2.82 2.43 2.43 0 00-1.8-.93 2.8 2.8 0 00-1.8.85 2.71 2.71 0 01-1.83.73 2.39 2.39 0 01-1.67-.66 2.28 2.28 0 01-.71-1.66v-.3a.76.76 0 00-.3-.7.83.83 0 00-.48-.15.75.75 0 00-.26 0 2.64 2.64 0 01-.86.15 2.5 2.5 0 01-1.9-.88 2.29 2.29 0 01-.52-1.46 2.32 2.32 0 01.3-1.12.79.79 0 000-.76.78.78 0 00-.66-.38 2.44 2.44 0 01-2.07-1.25 2.11 2.11 0 01-.28-1.07 2.34 2.34 0 01.69-1.64.76.76 0 00.21-.69.79.79 0 00-.47-.55 2.3 2.3 0 01-.45-4.14.75.75 0 00-.05-1.3 2.34 2.34 0 01-1.25-2 2.29 2.29 0 011-1.9.76.76 0 00.33-.56.78.78 0 00-.24-.61 2.36 2.36 0 01-.74-1.7 2.18 2.18 0 01.24-1 2.45 2.45 0 012.2-1.3.79.79 0 00.69-.41.76.76 0 00-.07-.81 2.38 2.38 0 01-.46-1.38 2.13 2.13 0 01.25-1 2.4 2.4 0 011.81-1.28.8.8 0 00.56-.25.73.73 0 00.13-.57.75.75 0 00-.76-.64h-.12a4.1 4.1 0 00-.48.1L16.45 4.68a4.26 4.26 0 012.05-2.76 4.16 4.16 0 012.11-.59 3.26 3.26 0 011.71.46l.17 1c1 6.31 3.42 21.08 3.92 23.37a4.3 4.3 0 01.11.87 3 3 0 01-.7 1.69l-.13.22a18.5 18.5 0 00-2.15 4.8 14.78 14.78 0 00-.61 4.36c0 5.18 2.14 10.1 5.28 12.26a6.24 6.24 0 003.41 1.25A3.26 3.26 0 0034.44 50a6.86 6.86 0 00.86-3.64v-.44c0-1 0-2.36-.07-3.95s0-3.4-.07-5.14a32.9 32.9 0 00-.75-7.48l-.06-.14a1.2 1.2 0 00-.09-.21v-.05a5.65 5.65 0 00-3.48-2.48v-.88a14.81 14.81 0 01.15-2.06c1.25-1.41 3.83-2.32 6.61-2.32h.08a11.38 11.38 0 014.64.95.88.88 0 00.24.11 5.68 5.68 0 011.72 1.26 14.59 14.59 0 01.15 2.06v.88a5.65 5.65 0 00-3.48 2.48 1.29 1.29 0 00-.12.26.53.53 0 000 .12c-.48 1.38-.64 3.9-.75 7.5 0 1.74-.06 3.55-.08 5.15s0 3-.06 3.94v.44a6.83 6.83 0 00.7 3.64 3.25 3.25 0 002.81 1.61 6.37 6.37 0 003.41-1.25c3.15-2.16 5.28-7.08 5.29-12.26a14.82 14.82 0 00-.62-4.36 18.68 18.68 0 00-2.14-4.8l-.15-.24a2.89 2.89 0 01-.68-1.7 4.58 4.58 0 01.11-.86c.53-2.42 3.19-18.84 4.06-24.24v-.13a3.28 3.28 0 011.72-.46 4.21 4.21 0 012.11.59 4.26 4.26 0 012 2.76L52.24 21a4.1 4.1 0 00-.48-.1h-.12a.77.77 0 00-.77.65.76.76 0 00.66.86 2.44 2.44 0 011.81 1.29 2.25 2.25 0 01.25 1 2.32 2.32 0 01-.47 1.38l-.06.09a.82.82 0 00-.09.39v.15a.79.79 0 00.64.51h.18a2.44 2.44 0 012.11 1.31 2.07 2.07 0 01.25 1 2.32 2.32 0 01-.74 1.69.75.75 0 00-.24.62.81.81 0 00.33.56 2.28 2.28 0 011 1.86 2.34 2.34 0 01-1.25 2 .77.77 0 00-.41.65.75.75 0 00.36.66 2.37 2.37 0 011.1 2 2.34 2.34 0 01-1.54 2.18.74.74 0 00-.48.55.78.78 0 00.2.69 2.31 2.31 0 01.52 2.83 2.48 2.48 0 01-2.09 1.25.78.78 0 00-.65.38.77.77 0 000 .75 2.25 2.25 0 01-.26 2.59 2.46 2.46 0 01-1.9.87 2.54 2.54 0 01-.86-.14.75.75 0 00-.26-.05.73.73 0 00-.47.17.72.72 0 00-.3.68v.31a2.28 2.28 0 01-.71 1.66 2.41 2.41 0 01-1.67.66 2.66 2.66 0 01-1.81-.71 2.77 2.77 0 00-1.82-.86 2.4 2.4 0 00-1.8.91 6.1 6.1 0 00-.92 2.82c-.62 4-.8 11.78-.94 19.47a.76.76 0 00.38.67 2.63 2.63 0 011.34 2.28 2.66 2.66 0 01-1.41 2.31.73.73 0 00-.4.65L38.42 86zM46 67.26a3.19 3.19 0 01-1.54-.37L44 56a4.22 4.22 0 001.9.46h.1l2.12 9.94a2.77 2.77 0 01-1.86.84zm-17 0h-.27a2.73 2.73 0 01-1.86-.85L29 56.47h.14a4.29 4.29 0 001.9-.46l-.49 10.88a3.3 3.3 0 01-1.55.37zm21.82-.68a2.8 2.8 0 01-1.16-.24l-2.15-10.23a3.64 3.64 0 001.1-.73 3.84 3.84 0 00.27-.29l4.58 10.19a2.87 2.87 0 01-1.3 1 3.3 3.3 0 01-1.31.3zm-26.69 0a3.26 3.26 0 01-1.3-.27 2.87 2.87 0 01-1.3-1l4.58-10.19.27.29a4 4 0 001.09.74l-2.15 10.19a2.74 2.74 0 01-1.16.24zm-4.42-2.09a3.76 3.76 0 01-2.16-.72 3.5 3.5 0 01-1.08-1.23l6.73-9.73a4 4 0 001.67.38h.37l-5 11.23a4 4 0 01-.5.07zm35.53 0a3.89 3.89 0 01-.49 0l-5-11.21v-.07a2.36 2.36 0 00.37 0 4 4 0 001.68-.38l6.73 9.73a3.5 3.5 0 01-1.08 1.23 3.76 3.76 0 01-2.18.7zm-2.19-12.57a1 1 0 00.17-.18 3.8 3.8 0 00.67-1.19l9.16 8.73a3.32 3.32 0 01-.85 1.34 3.64 3.64 0 01-2.4 1.06zm-37.83 9.76a3.64 3.64 0 01-2.4-1.06 3.32 3.32 0 01-.82-1.34l9.16-8.73a4 4 0 00.66 1.19l.18.18zM54 48.52a.29.29 0 000-.09 4 4 0 001.57-.89L67.07 55a3.23 3.23 0 01-.56 1.65 3.55 3.55 0 01-2.33 1.54zm-43.16 9.71a3.48 3.48 0 01-2.32-1.54A3.15 3.15 0 018 55l11.52-7.5a4 4 0 001.57.89.29.29 0 010 .09zm-3.73-4.47A3.51 3.51 0 015.18 52 3 3 0 015 49.65l13.29-5.46a3.64 3.64 0 00-.05.56 3.69 3.69 0 00.34 1.56zm49.36-7.47a3.67 3.67 0 00.33-1.54 3.39 3.39 0 000-.55L70 49.64a3 3 0 01-.16 2.36 3.53 3.53 0 01-1.93 1.78zm.19-3.79a3.84 3.84 0 001-1.38l14.95 2.79a3 3 0 01.24 2.18 3.41 3.41 0 01-1.85 2.3zM4 48.39a3.4 3.4 0 01-1.83-2.3 3 3 0 01.24-2.19l15-2.77a3.89 3.89 0 001 1.37zm-2-5.95a4 4 0 01-1.68-2.82A3.54 3.54 0 011 37l16.64.81a3.73 3.73 0 00-.52 1.84zm56-2.81a3.61 3.61 0 00-.53-1.84L74 37a3.58 3.58 0 01.66 2.64 4 4 0 01-1.65 2.82zM1 35.45a4 4 0 01-1-2.74A3.54 3.54 0 011.2 30l15.69 4.59a3.81 3.81 0 00.5 1.71zm56.59.81a3.73 3.73 0 00.5-1.75L73.82 30A3.55 3.55 0 0175 32.71a4 4 0 01-1 2.74zM1.35 28.41a3.88 3.88 0 01-.43-3.28A3.5 3.5 0 012.7 23l15.23 8.82a4.07 4.07 0 00-.76 1.18zM57.84 33a3.85 3.85 0 00-.75-1.21L72.32 23a3.5 3.5 0 011.78 2.16 3.84 3.84 0 01-.44 3.28zm-.1-3.39a3.74 3.74 0 00-.41-1.7.86.86 0 00-.1-.16l11.89-11.37a3.54 3.54 0 012.37 2 3.89 3.89 0 010 3.27l-13.76 8zM3.52 21.67a3.86 3.86 0 010-3.27 3.53 3.53 0 012.37-2l11.9 11.35a.86.86 0 00-.1.16 3.71 3.71 0 00-.41 1.7zm3.34-6.5a3.83 3.83 0 01.43-3.08 3.53 3.53 0 012.59-1.77L19.93 26a3.71 3.71 0 00-1.11.59zM56.2 26.6a4.23 4.23 0 00-1.11-.6l10-15.69a3.53 3.53 0 012.59 1.77 3.84 3.84 0 01.43 3.07zM11 9.15a4.09 4.09 0 011-2.41 3.65 3.65 0 012.73-1.32h.41l6.3 16.24A3.86 3.86 0 0020.29 23a3.79 3.79 0 00-.18.42zm43.91 14.27a3.79 3.79 0 00-.18-.42 4 4 0 00-1.1-1.31l6.3-16.24a3 3 0 01.42 0 3.65 3.65 0 012.72 1.32 4 4 0 011 2.41zm-22.58-2.78a6.76 6.76 0 01-1.57-4.34 8.11 8.11 0 010-.86A9.47 9.47 0 0133.2 11l.23-.3c1-1.33 2.12-2.7 2.14-4.34a3.78 3.78 0 000-.51 11.85 11.85 0 01-.13-1.68A6.18 6.18 0 0136.81 0v.36a12.67 12.67 0 002.12 6.18c-.48.7-1 1.38-1.57 2.09s-.89 1.14-1.36 1.73c-1.4 1.94-2.76 4.06-2.76 6.66a8.09 8.09 0 00.64 3.07 11.45 11.45 0 00-1.55.55zm10.08-.11a13 13 0 00-4.9-.91 13.7 13.7 0 00-2 .15 6.66 6.66 0 01-.68-2.77c0-2.17 1.22-4 2.48-5.78.4-.56.84-1.13 1.27-1.68L39 9c.35-.46.71-.93 1.05-1.4l.56-.84c.23-.36.44-.71.64-1.07A11.72 11.72 0 0042 4.2a12.11 12.11 0 01.32 2.73 9.11 9.11 0 010 .93A6.21 6.21 0 0142 9.34c-.1.33-.23.67-.38 1a12.44 12.44 0 01-.62 1.25c-.17.33-.36.64-.55.95s-.35.58-.53.86a6.83 6.83 0 00-1.34 3.06 1.92 1.92 0 000 .41c.13.51.31 1.19 1.16 1.29a1.11 1.11 0 001-.68 2.32 2.32 0 00.2-1 3.39 3.39 0 00-.32-1.4c.3-.54.71-1.18 1.1-1.79.22-.37.47-.79.71-1.25a9.63 9.63 0 011.36 4.55 6.3 6.3 0 01-1.38 3.94zm-9.95-11.1a12.9 12.9 0 00.3-2.67 10.34 10.34 0 00-.4-2.86A5.12 5.12 0 0134 6.72a6.82 6.82 0 01-1.54 2.71zM107.36 11.41v21.28h-5.54V11.41h-7.23V6.77h20v4.64zM139.65 23.26c0 6-4 9.93-10.83 9.93S118 29.3 118 23.26V6.77h5.55v16c0 3.38 1.9 5.39 5.29 5.39s5.29-2 5.29-5.39v-16h5.54zM154.56 6.77c6 0 10 3 10 8.53a7.58 7.58 0 01-4.93 7.38l5.44 10h-5.87l-4.57-9.08h-3.74v9.08h-5.44V6.77zm-3.67 4.64v7.74h4c2.44 0 4.14-1.22 4.14-3.85s-1.77-3.89-4.29-3.89zM190.81 23.26c0 6-4 9.93-10.84 9.93s-10.83-3.89-10.83-9.93V6.77h5.54v16c0 3.38 1.91 5.39 5.29 5.39s5.29-2 5.29-5.39v-16h5.55zM218 33.08l-14.27-13.64L202 18v14.69h-5.43V6.37h.21L211 20l1.65 1.47V6.77h5.47v26.31zM99.62 41.62l5.94 10.62 5.94-10.62h6.27l-9.43 15.87v10.05h-5.55V57.49L93.4 41.62zM120.25 67.54V41.62h5.55v21.27h10v4.65zM139.76 67.54V41.62h5.55v25.92zM163.38 41.12a13.46 13.46 0 11-13.57 13.46 13.28 13.28 0 0113.57-13.46zm0 21.85c4.68 0 8-3.75 8-8.39s-3.31-8.39-8-8.39-8 3.78-8 8.39 3.32 8.42 8 8.42zM187 58.68v8.86h-5.54V41.62h8.42c6 0 10 3 10 8.53s-4 8.53-10 8.53zm0-12.42V54h3.17c2.41 0 4.06-1.26 4.06-3.85s-1.72-3.89-4.21-3.89zM203.91 67.54V41.62h5.55v25.92zM214.43 66.57v-5.33a17 17 0 006.51 1.87 9.39 9.39 0 002.3-.14c2-.29 3.14-1 3.14-2.31 0-1.73-1.55-2.63-5.12-3.92-4.53-1.66-7.19-3.56-7.19-8.06s3.81-7.56 9.39-7.56a17.84 17.84 0 016.77 1.29v5.11a13.27 13.27 0 00-6.34-1.58c-2.66 0-4.39 1-4.39 2.7 0 1.51 1.4 2.56 4.93 3.89 4.54 1.76 7.35 3.67 7.35 8 0 4.68-3.53 7.49-9.65 7.49a20.36 20.36 0 01-7.7-1.45zM246.43 46.26v21.28h-5.55V46.26h-7.23v-4.64h20v4.64zM269.32 41.12a13.46 13.46 0 11-13.57 13.46 13.28 13.28 0 0113.57-13.46zm0 21.85c4.68 0 8-3.75 8-8.39s-3.31-8.39-8-8.39-8 3.78-8 8.39 3.32 8.42 8 8.42z"></path></g></g></svg>